# xmcd
#
# Track frame offsets:
#	150
#	21786
#	37290
#	57753
#	72391
#	91356
#	106296
#	122080
#	135200
#	148461
#	159275
#	173891
#	193772
#	209609
#	223877
#	240267
#	262138
#	279695
#	297655
#
# Disc length: 4174 seconds
#
# Revision: 2
# Processed by: cddbd v1.5.2PL0 Copyright (c) Steve Scherf et al.
# Submitted via: audiograbber 1.83.01
#
DISCID=34104c13
DTITLE=Various Artist - Disco Divas
DYEAR=1999
DGENRE=Disco
TTITLE0=John Travolta - Olivia Newton John - The Grease Megamix
TTITLE1=5000 Volts - Dr Kiss Kiss
TTITLE2=Ollie and Jerry - Breakin' (There's No Stopping Us)
TTITLE3=Rick Dees and His Cast Of Idiots - Disco Duck
TTITLE4=The Stylistics - Rockin' Roll Baby
TTITLE5=Rick James - Super Freak
TTITLE6=Barry White - Let The Music Play
TTITLE7=Jackson 5 - I Want You Back
TTITLE8=Yvonne Elliman - If I Can't Have You
TTITLE9=R Dean Taylor - There's A Ghost In My House
TTITLE10=Ohio Players - Fire
TTITLE11=Shakatak - Night Birds
TTITLE12=David Joseph - You Can't Hide (Your Love From Me)
TTITLE13=Vogue - Dancin' The Night Away
TTITLE14=Giorgio Moroder - The Chase
TTITLE15=Terri De Sario - Ain't Nothing Gonna Keep Me From You
TTITLE16=Con Funk Shun - Burnin' Love
TTITLE17=The Dazz Band - Let It All Blow
TTITLE18=Cameo - It's Serious
EXTD=
EXTT0=
EXTT1=
EXTT2=
EXTT3=
EXTT4=
EXTT5=
EXTT6=
EXTT7=
EXTT8=
EXTT9=
EXTT10=
EXTT11=
EXTT12=
EXTT13=
EXTT14=
EXTT15=
EXTT16=
EXTT17=
EXTT18=
PLAYORDER=
